<?xml version="1.0" encoding="UTF-8"?><svg width="28" height="28" version="1.1" viewBox="0 0 28 28" xmlns="http://www.w3.org/2000/svg" xmlns:xlink="http://www.w3.org/1999/xlink"><!--Generated by IJSVG (https://github.com/iconjar/IJSVG)--><g transform="scale(1.16667)"><path fill="none" stroke="#1864ab" stroke-linecap="round" stroke-linejoin="round" stroke-width="1" d="M23.5,12c0,0 -5.148,6.5 -11.5,6.5c-6.352,0 -11.5,-6.5 -11.5,-6.5c0,0 5.148,-6.5 11.5,-6.5c6.352,0 11.5,6.5 11.5,6.5Z"></path><path fill="#1864ab" stroke="#1864ab" stroke-linecap="round" stroke-linejoin="round" stroke-width="1" d="M14.8284,9.17157c1.5621,1.5621 1.5621,4.09476 0,5.65685c-1.5621,1.5621 -4.09476,1.5621 -5.65685,0c-1.5621,-1.5621 -1.5621,-4.09476 -1.77636e-15,-5.65685c1.5621,-1.5621 4.09476,-1.5621 5.65685,-1.77636e-15"></path><path fill="none" d="M0,0h24v24h-24Z"></path></g></svg>
