<?xml version="1.0" encoding="UTF-8" standalone="no"?><!DOCTYPE svg PUBLIC "-//W3C//DTD SVG 1.1//EN" "http://www.w3.org/Graphics/SVG/1.1/DTD/svg11.dtd"><svg width="100%" height="100%" viewBox="0 0 24 24" version="1.1" xmlns="http://www.w3.org/2000/svg" xmlns:xlink="http://www.w3.org/1999/xlink" xml:space="preserve" xmlns:serif="http://www.serif.com/" style="fill-rule:evenodd;clip-rule:evenodd;stroke-linecap:round;stroke-linejoin:round;"><g><path d="M23.5,12c0,0 -5.148,6.5 -11.5,6.5c-6.352,0 -11.5,-6.5 -11.5,-6.5c0,0 5.148,-6.5 11.5,-6.5c6.352,0 11.5,6.5 11.5,6.5Z" style="fill:none;stroke:#212529;stroke-width:1px;"/><path d="M14.828,9.172c1.562,1.562 1.562,4.094 0,5.656c-1.562,1.563 -4.094,1.563 -5.656,0c-1.563,-1.562 -1.563,-4.094 0,-5.656c1.562,-1.563 4.094,-1.563 5.656,0" style="fill:none;stroke:#212529;stroke-width:1px;"/><path d="M12,10c1.104,0 2,0.896 2,2c0,1.104 -0.896,2 -2,2c-1.104,0 -2,-0.896 -2,-2" style="fill:none;stroke:#212529;stroke-width:1px;"/></g><rect x="0" y="0" width="24" height="24" style="fill:none;"/></svg>